<svg xmlns="http://www.w3.org/2000/svg" viewBox="0 0 64 64">
  <defs>
    <linearGradient id="handGrad" x1="0%" y1="0%" x2="100%" y2="100%">
      <stop offset="0%" style="stop-color:#D4A574"/>
      <stop offset="100%" style="stop-color:#C9A66B"/>
    </linearGradient>
  </defs>
  <!-- Main avec coeur -->
  <path d="M20 48 L20 28 C20 24 24 20 28 20 L28 16 C28 12 32 10 36 12 L40 14 C44 16 44 20 44 24 L44 32 L48 32 C52 32 54 36 54 40 L54 48 C54 54 48 58 42 58 L28 58 C22 58 18 54 20 48 Z" fill="url(#handGrad)"/>
  <!-- Coeur -->
  <path d="M32 30 C30 26 24 26 24 32 C24 38 32 44 32 44 C32 44 40 38 40 32 C40 26 34 26 32 30 Z" fill="#E57373"/>
  <!-- Lignes des doigts -->
  <path d="M28 20 L28 28" stroke="#B8956A" stroke-width="1" stroke-linecap="round"/>
  <path d="M34 18 L34 26" stroke="#B8956A" stroke-width="1" stroke-linecap="round"/>
  <path d="M40 20 L40 28" stroke="#B8956A" stroke-width="1" stroke-linecap="round"/>
</svg>